<svg width="24" height="24" viewBox="0 0 24 24" fill="none" xmlns="http://www.w3.org/2000/svg">
<path d="M14.4246 9.61462H15.762C16.1167 9.61462 16.4568 9.75553 16.7076 10.0063C16.9584 10.2571 17.0993 10.5973 17.0993 10.952V17.3715C17.0993 17.7262 16.9584 18.0663 16.7076 18.3171C16.4568 18.5679 16.1167 18.7088 15.762 18.7088H7.73765C7.38296 18.7088 7.04279 18.5679 6.79198 18.3171C6.54117 18.0663 6.40027 17.7262 6.40027 17.3715V10.952C6.40027 10.5973 6.54117 10.2571 6.79198 10.0063C7.04279 9.75553 7.38296 9.61462 7.73765 9.61462H9.07504" stroke="#9C9C9C" stroke-width="1.5" stroke-linecap="round" stroke-linejoin="round"/>
<path d="M14.4235 7.47494L11.7487 4.80017L9.07397 7.47494" stroke="#9C9C9C" stroke-width="1.5" stroke-linecap="round" stroke-linejoin="round"/>
<path d="M11.7518 13.9278V4.80017" stroke="#9C9C9C" stroke-width="1.5" stroke-linecap="round" stroke-linejoin="round"/>
</svg>
